HIERARCHY
ROOT joint_Root
{
	OFFSET 0.0 0.0 0.0
	CHANNELS 6 Xposition Yposition Zposition Zrotation Xrotation Yrotation 
	JOINT Hips
	{
		OFFSET 4.5925 91.4895 -427.239
		CHANNELS 6 Xposition Yposition Zposition Zrotation Xrotation Yrotation 
		JOINT Spine
		{
			OFFSET 15.7357 0.0 0.0
			CHANNELS 6 Xposition Yposition Zposition Zrotation Xrotation Yrotation 
			JOINT Chest
			{
				OFFSET 8.98455 -0.406207 0.0
				CHANNELS 6 Xposition Yposition Zposition Zrotation Xrotation Yrotation 
				JOINT Neck
				{
					OFFSET 16.3773 0.0 0.0
					CHANNELS 6 Xposition Yposition Zposition Zrotation Xrotation Yrotation 
					JOINT Head
					{
						OFFSET 6.45672 0.0 0.0
						CHANNELS 6 Xposition Yposition Zposition Zrotation Xrotation Yrotation 
						End Site
						{
							OFFSET 0.0 0.0 0.0
						}
					}
				}
				JOINT Shoulder_L
				{
					OFFSET 12.9942 -0.242716 4.98039
					CHANNELS 6 Xposition Yposition Zposition Zrotation Xrotation Yrotation 
					JOINT UpperArm_L
					{
						OFFSET 5.34809 0.0 0.0
						CHANNELS 6 Xposition Yposition Zposition Zrotation Xrotation Yrotation 
						JOINT LowerArm_L
						{
							OFFSET 24.3286 1.87007e-05 0.0
							CHANNELS 6 Xposition Yposition Zposition Zrotation Xrotation Yrotation 
							JOINT Hand_L
							{
								OFFSET 22.2916 0.0 0.0
								CHANNELS 6 Xposition Yposition Zposition Zrotation Xrotation Yrotation 
								End Site
								{
									OFFSET 0.0 0.0 0.0
								}
							}
						}
					}
				}
				JOINT Shoulder_R
				{
					OFFSET 12.9945 -0.242716 -4.98039
					CHANNELS 6 Xposition Yposition Zposition Zrotation Xrotation Yrotation 
					JOINT UpperArm_R
					{
						OFFSET -5.34813 0.0 0.0
						CHANNELS 6 Xposition Yposition Zposition Zrotation Xrotation Yrotation 
						JOINT LowerArm_R
						{
							OFFSET -24.3289 0.000322201 0.0
							CHANNELS 6 Xposition Yposition Zposition Zrotation Xrotation Yrotation 
							JOINT Hand_R
							{
								OFFSET -22.2915 -0.000108084 0.0
								CHANNELS 6 Xposition Yposition Zposition Zrotation Xrotation Yrotation 
								End Site
								{
									OFFSET 0.0 0.0 0.0
								}
							}
						}
					}
				}
			}
		}
		JOINT UpperLeg_L
		{
			OFFSET -2.19248 -6.46944 0.0
			CHANNELS 6 Xposition Yposition Zposition Zrotation Xrotation Yrotation 
			JOINT LowerLeg_L
			{
				OFFSET 39.0811 0.0 -1.23785e-05
				CHANNELS 6 Xposition Yposition Zposition Zrotation Xrotation Yrotation 
				JOINT Foot_L
				{
					OFFSET 40.9854 0.0 -1.26872e-05
					CHANNELS 6 Xposition Yposition Zposition Zrotation Xrotation Yrotation 
					JOINT Toes_L
					{
						OFFSET 11.7543 0.0 0.0
						CHANNELS 6 Xposition Yposition Zposition Zrotation Xrotation Yrotation 
						End Site
						{
							OFFSET 0.0 0.0 0.0
						}
					}
				}
			}
		}
		JOINT UpperLeg_R
		{
			OFFSET -2.19251 6.46944 0.0
			CHANNELS 6 Xposition Yposition Zposition Zrotation Xrotation Yrotation 
			JOINT LowerLeg_R
			{
				OFFSET -39.0811 -0.00228153 -0.0401928
				CHANNELS 6 Xposition Yposition Zposition Zrotation Xrotation Yrotation 
				JOINT Foot_R
				{
					OFFSET -40.9854 0.0 0.0
					CHANNELS 6 Xposition Yposition Zposition Zrotation Xrotation Yrotation 
					JOINT Toes_R
					{
						OFFSET -11.7543 0.0 0.0
						CHANNELS 6 Xposition Yposition Zposition Zrotation Xrotation Yrotation 
						End Site
						{
							OFFSET 0.0 0.0 0.0
						}
					}
				}
			}
		}
	}
}
MOTION
Frames:	4
Frame Time:	0.0333333
0.000000 0.000000 0.000000 0.000000 0.000000 -0.000000 -5.251290 91.032000 -513.567000 89.255800 3.593710 6.267290 15.735700 0.000005 -0.000001 84.708300 86.805200 -83.509000 8.984550 -0.406207 -0.000000 -1.395480 -0.684996 2.389400 16.377300 -0.000001 -0.000001 -9.384060 -0.146602 0.696114 6.456720 -0.000001 -0.000000 -17.847900 -0.985429 5.445490 12.994200 -0.242716 4.980390 -90.467700 1.784540 -75.315100 5.348090 -0.000007 -0.000001 -74.128600 12.503500 3.850350 24.328600 0.000019 0.000005 8.954130 28.713600 -18.157800 22.291600 -0.000001 0.000005 12.609500 5.144990 4.059650 12.994500 -0.242716 -4.980390 88.716300 8.997180 -81.845300 -5.348130 -0.000001 -0.000004 -64.299000 21.905200 -0.606005 -24.328900 0.000322 -0.000009 1.716900 4.591350 -20.541800 -22.291500 -0.000108 -0.000004 14.973900 5.390600 -2.628870 -2.192480 -6.469440 -0.000000 -169.754000 -6.085740 -6.202330 39.081100 -0.000007 -0.000012 0.113744 -0.072413 57.516300 40.985400 -0.000006 -0.000013 -1.746050 3.311770 -62.150000 11.754300 -0.000000 0.000003 -0.002872 -0.039155 -18.169100 -2.192510 6.469440 -0.000001 178.942000 25.499500 176.656000 -39.081100 -0.002282 -0.040193 -0.017952 0.037490 29.551100 -40.985400 0.000008 0.000006 7.555750 3.652700 -71.089100 -11.754300 -0.000006 -0.000006 -0.004452 -0.056066 -18.854000
0.000000 0.000000 0.000000 0.000000 0.000000 -0.000000 -5.394200 91.418700 -512.564000 89.844800 2.590760 5.999300 15.735700 0.000005 -0.000001 96.643500 86.566800 -95.745200 8.984550 -0.406207 -0.000000 -0.950706 0.725926 1.801890 16.377300 -0.000001 -0.000001 -9.308280 -0.059132 0.729014 6.456720 -0.000001 -0.000000 -17.975300 -1.523480 5.372260 12.994200 -0.242716 4.980390 -90.691500 2.481210 -74.423500 5.348090 -0.000007 -0.000001 -73.858000 9.998820 6.344420 24.328600 0.000019 0.000005 7.750410 29.241900 -15.568200 22.291600 -0.000001 0.000005 13.133400 5.114620 4.776120 12.994500 -0.242716 -4.980390 88.740000 9.492010 -82.403100 -5.348130 -0.000001 -0.000004 -61.406700 23.619300 -3.600550 -24.328900 0.000322 -0.000009 1.785920 4.295070 -22.614600 -22.291500 -0.000108 -0.000004 15.715200 5.410370 -3.277150 -2.192480 -6.469440 -0.000000 -171.126000 -8.275410 -9.579310 39.081100 -0.000007 -0.000012 0.111133 -0.070655 57.551300 40.985400 -0.000006 -0.000013 -0.666334 0.346874 -62.931400 11.754300 -0.000000 0.000003 -0.002882 -0.039268 -18.173700 -2.192510 6.469440 -0.000001 177.834000 26.665100 178.538000 -39.081100 -0.002282 -0.040193 -0.016461 0.038493 27.183300 -40.985400 0.000008 0.000006 7.492460 6.211780 -70.941700 -11.754300 -0.000006 -0.000006 -0.003729 -0.048592 -18.549600
0.000000 0.000000 0.000000 0.000000 0.000000 -0.000000 -5.578090 91.699100 -511.751000 90.105300 1.727960 5.101790 15.735700 0.000005 -0.000001 105.572000 86.433200 -104.913000 8.984550 -0.406207 -0.000000 -0.904603 1.864760 1.333690 16.377300 -0.000001 -0.000001 -9.077000 -0.010374 0.678051 6.456720 -0.000001 -0.000000 -17.936900 -2.031150 5.183470 12.994200 -0.242716 4.980390 -90.905400 3.071530 -73.568400 5.348090 -0.000007 -0.000001 -73.219500 8.589810 8.901660 24.328600 0.000019 0.000005 7.200150 29.756200 -14.281100 22.291600 -0.000001 0.000005 13.052000 5.081160 5.542340 12.994500 -0.242716 -4.980390 88.764200 9.806640 -82.781600 -5.348130 -0.000001 -0.000004 -58.909800 23.965200 -7.023880 -24.328900 0.000322 -0.000009 1.899790 4.368370 -23.544000 -22.291500 -0.000108 -0.000004 15.937700 5.414710 -3.421590 -2.192480 -6.469440 -0.000000 -172.366000 -9.460860 -13.207600 39.081100 -0.000007 -0.000012 0.096113 -0.066848 55.179300 40.985400 -0.000006 -0.000013 -0.446004 -0.043922 -63.848700 11.754300 -0.000000 0.000003 -0.003152 -0.042312 -18.297600 -2.192510 6.469440 -0.000001 177.484000 27.968900 179.330000 -39.081100 -0.002282 -0.040193 -0.022191 0.054407 25.114500 -40.985400 0.000008 0.000006 7.638180 8.480170 -70.603300 -11.754300 -0.000006 -0.000006 -0.003470 -0.045805 -18.436100
0.000000 0.000000 0.000000 0.000000 0.000000 -0.000000 -5.713840 91.893100 -510.938000 90.253700 0.875286 4.448140 15.735700 0.000005 -0.000001 111.024000 86.114900 -110.556000 8.984550 -0.406207 -0.000000 -0.523882 2.753160 0.949714 16.377300 -0.000001 -0.000001 -8.958920 0.120986 0.546026 6.456720 -0.000001 -0.000000 -17.908300 -2.583880 4.847340 12.994200 -0.242716 4.980390 -91.089900 3.499140 -72.688000 5.348090 -0.000007 -0.000001 -72.807200 7.849480 11.093800 24.328600 0.000019 0.000005 7.108520 30.953400 -13.629100 22.291600 -0.000001 0.000005 13.069300 5.061010 5.993100 12.994500 -0.242716 -4.980390 88.877900 9.696840 -83.367300 -5.348130 -0.000001 -0.000004 -57.184000 23.233700 -10.438200 -24.328900 0.000322 -0.000009 1.830520 4.137890 -23.901700 -22.291500 -0.000108 -0.000004 16.309200 5.412030 -3.332400 -2.192480 -6.469440 -0.000000 -173.378000 -9.747290 -15.711700 39.081100 -0.000007 -0.000012 0.074436 -0.061856 50.271900 40.985400 -0.000006 -0.000013 -1.069950 1.292930 -64.366200 11.754300 -0.000000 0.000003 -0.002901 -0.039487 -18.182600 -2.192510 6.469440 -0.000001 177.069000 29.314700 -179.770000 -39.081100 -0.002282 -0.040193 -0.027257 0.070744 23.371400 -40.985400 0.000008 0.000006 7.948250 10.655600 -70.374600 -11.754300 -0.000006 -0.000006 -0.003846 -0.049834 -18.600100
